<?xml version="1.0" encoding="utf-8"?>
<!-- Generator: Adobe Illustrator 27.3.1, SVG Export Plug-In . SVG Version: 6.00 Build 0)  -->
<svg version="1.1" id="Camada_1" xmlns="http://www.w3.org/2000/svg" xmlns:xlink="http://www.w3.org/1999/xlink" x="0px" y="0px"
	 viewBox="0 0 485.8 483.5" style="enable-background:new 0 0 485.8 483.5;" xml:space="preserve">
<style type="text/css">
	.st0{fill:#E6E6E6;}
	.st1{fill:#FFFFFF;}
	.st2{fill:#F2F2F2;}
	.st3{fill:#CCCCCC;}
	.st4{fill:#FFB8B8;}
	.st5{fill:#2F2E41;}
	.st6{fill:#FFBB33;}
	.st7{opacity:0.2;enable-background:new    ;}
</style>
<path class="st0" d="M320.5,128.1h-79.7c-3.5,0-6.9-1.6-9.1-4.4l0,0c-2.2-2.8-3-6.5-2.2-10c7.3-30.8,7.4-62.9,0-93.6
	c-0.8-3.5,0-7.2,2.2-10c2.2-2.8,5.5-4.4,9.1-4.4h79.7c5.7,0,10.5,4.1,11.4,9.8c5.2,34.1,5.2,68.8,0,102.9
	C331,124,326.1,128.1,320.5,128.1z"/>
<path class="st1" d="M240.7,11.7c-1.7,0-3.3,0.8-4.4,2.1c-1.1,1.4-1.5,3.2-1.1,4.9c7.6,31.7,7.6,64.7,0,96.4c-0.4,1.7,0,3.5,1.1,4.9
	l0,0c1,1.3,2.7,2.1,4.4,2.1h79.7c2.7,0,5.1-2,5.5-4.7c5.2-33.5,5.2-67.6,0-101c-0.4-2.7-2.8-4.7-5.5-4.7H240.7z"/>
<path class="st0" d="M303.1,40.6h-41.8c-3.3,0-6-2.7-6-6v-2.3c0-3.3,2.7-6,6-6h41.8c3.3,0,6,2.7,6,6v2.3
	C309.1,37.9,306.4,40.6,303.1,40.6z"/>
<path class="st0" d="M303.1,70.2h-41.8c-3.3,0-6-2.7-6-6v-2.3c0-3.3,2.7-6,6-6h41.8c3.3,0,6,2.7,6,6v2.3
	C309.1,67.5,306.4,70.2,303.1,70.2z"/>
<path class="st0" d="M303.1,99.8h-41.8c-3.3,0-6-2.7-6-6v-2.3c0-3.3,2.7-6,6-6h41.8c3.3,0,6,2.7,6,6v2.3
	C309.1,97.1,306.4,99.8,303.1,99.8z"/>
<path class="st0" d="M470.5,204.1h-79.7c-3.5,0-6.9-1.6-9.1-4.4l0,0c-2.2-2.8-3-6.5-2.2-10c7.3-30.8,7.4-62.9,0-93.6
	c-0.8-3.5,0-7.2,2.2-10c2.2-2.8,5.5-4.4,9.1-4.4h79.7c5.7,0,10.5,4.1,11.4,9.8c5.2,34.1,5.2,68.8,0,102.9
	C481,200,476.1,204.1,470.5,204.1z"/>
<path class="st1" d="M390.7,87.7c-1.7,0-3.3,0.8-4.4,2.1c-1.1,1.4-1.5,3.2-1.1,4.9c7.6,31.7,7.6,64.7,0,96.4c-0.4,1.7,0,3.5,1.1,4.9
	l0,0c1,1.3,2.7,2.1,4.4,2.1h79.7c2.7,0,5.1-2,5.5-4.7c5.2-33.5,5.2-67.6,0-101c-0.4-2.7-2.8-4.7-5.5-4.7H390.7z"/>
<path class="st2" d="M311.5,290.6h-79.7c-3.7,0-7.2-1.7-9.5-4.6c-2.3-2.9-3.2-6.8-2.3-10.4c7.3-30.7,7.3-62.7,0-93.4
	c-0.9-3.6,0-7.5,2.3-10.4c2.3-2.9,5.8-4.6,9.5-4.6h79.7c5.9,0,11,4.3,11.9,10.2c5.3,34.1,5.3,68.9,0,103
	C322.4,286.3,317.4,290.6,311.5,290.6z"/>
<path class="st0" d="M453.1,131.6h-41.8c-3.3,0-6-2.7-6-6v-2.3c0-3.3,2.7-6,6-6h41.8c3.3,0,6,2.7,6,6v2.3
	C459.1,128.9,456.4,131.6,453.1,131.6z"/>
<path class="st0" d="M453.1,161.2h-41.8c-3.3,0-6-2.7-6-6v-2.3c0-3.3,2.7-6,6-6h41.8c3.3,0,6,2.7,6,6v2.3
	C459.1,158.5,456.4,161.2,453.1,161.2z"/>
<circle class="st1" cx="271.8" cy="228.5" r="23"/>
<path class="st0" d="M282.8,225.5h-8v-8c0-1.7-1.3-3-3-3s-3,1.3-3,3v8h-8c-1.7,0-3,1.3-3,3s1.3,3,3,3h8v8c0,1.7,1.3,3,3,3s3-1.3,3-3
	v-8h8c1.7,0,3-1.3,3-3S284.5,225.5,282.8,225.5z"/>
<path class="st3" d="M300.8,17h-42c-2.5,0-4.5-2-4.5-4.5v-8c0-2.5,2-4.5,4.5-4.5h42c2.5,0,4.5,2,4.5,4.5v8
	C305.3,15,303.3,17,300.8,17z"/>
<path class="st3" d="M452.8,94h-42c-2.5,0-4.5-2-4.5-4.5v-8c0-2.5,2-4.5,4.5-4.5h42c2.5,0,4.5,2,4.5,4.5v8
	C457.3,92,455.3,94,452.8,94z"/>
<polygon class="st4" points="88.6,471.1 100.9,471.1 104.7,423.8 88.6,423.8 "/>
<path class="st5" d="M85.5,467.1l24.1,0h0c8.5,0,15.4,6.9,15.4,15.4c0,0,0,0,0,0v0.5l-39.5,0L85.5,467.1z"/>
<polygon class="st4" points="22.6,471.1 34.9,471.1 40.7,423.8 22.6,423.8 "/>
<path class="st5" d="M19.5,467.1l24.1,0h0c8.5,0,15.4,6.9,15.4,15.4c0,0,0,0,0,0v0.5l-39.5,0L19.5,467.1z"/>
<path class="st5" d="M24.8,456.1c-1.3,0-2.5-0.5-3.4-1.3l0,0c-1-0.9-1.6-2.2-1.6-3.5l-4.9-176.2l69.8,17.5l21.5,64.6
	c2.8,8.3,4,17.1,3.5,25.8l-2.7,62.6c-0.1,2.7-2.3,4.8-5,4.8H90.4c-2.5,0-4.6-1.9-5-4.3l-8.4-69.1c-0.7-5.4-2.6-10.6-5.5-15.2
	l-16.5-26.1c-0.3-0.5-0.9-0.6-1.4-0.3c-0.3,0.2-0.4,0.4-0.5,0.7L40.3,451.1c-0.3,2.4-2.3,4.3-4.7,4.4l-10.6,0.6
	C25,456.1,24.9,456.1,24.8,456.1z"/>
<circle class="st4" cx="73.1" cy="136.4" r="24.6"/>
<path class="st6" d="M84.3,299.7c-0.4,0-0.8-0.1-1.3-0.2h0l-69.3-17.8c-2.6-0.7-4.2-3.2-3.7-5.8l15.9-85.7
	c2-10.1,8.8-18.5,18.2-22.5c9.2-4.1,19.8-3.3,28.3,2.1c1,0.6,1.9,1.3,2.9,2c7.8,5.8,12.5,14.8,12.6,24.5l1.3,98.3
	C89.4,297.4,87.2,299.6,84.3,299.7C84.4,299.7,84.4,299.7,84.3,299.7z"/>
<path class="st4" d="M20.9,300.7c-3.1-4.6-1.9-10.8,2.7-14c0.5-0.3,1-0.6,1.5-0.9l-3.1-35.6l16.3,8.8l0.4,32.5
	c1.9,5.2-0.7,11.1-6,13C28.5,306.2,23.6,304.6,20.9,300.7z"/>
<path class="st6" d="M26.8,281.1c-0.5,0-0.9-0.1-1.4-0.2c-2-0.5-3.5-2-4-4l-8-31.9C10.6,234,12,222.2,17.2,212L34,179.1
	c2.2-8.2,10.6-13.1,18.8-11c4,1,7.4,3.6,9.5,7.1c2.1,3.6,2.7,7.9,1.7,11.9L40,240.6l0.3,32c0,2.3-1.4,4.4-3.6,5.2l-8,3
	C28.1,281,27.4,281.1,26.8,281.1z"/>
<path class="st4" d="M141.3,287.6c-5.5-0.6-9.5-5.6-8.8-11.1c0.1-0.6,0.2-1.2,0.4-1.7l-29-20.9l17.4-6.6l24.9,20.8
	c5.2,1.9,7.9,7.8,5.9,13C150.4,285.5,146,288.1,141.3,287.6L141.3,287.6z"/>
<path class="st6" d="M126.1,272.3c-0.9,0-1.7-0.2-2.5-0.6L94.3,257C84,251.9,76,243.2,71.6,232.6l-14-34.2c-4.8-7-3-16.6,3.9-21.4
	c3.4-2.4,7.5-3.3,11.6-2.5c4.1,0.7,7.7,3.1,10.1,6.5l24.9,53l24.5,20.7c1.8,1.5,2.4,3.9,1.6,6.1l-3,8c-0.4,1.1-1.1,2-2,2.6
	C128.4,272,127.3,272.3,126.1,272.3z"/>
<path class="st5" d="M67.9,161.3c1.3,0.6,4-9.8,2.8-11.9c-1.8-3.1-1.7-3.1-2.9-5.1s-1.4-4.8,0.1-6.6s5.1-1.6,5.8,0.7
	c-0.4-4.3,3.8-7.7,8-8.7s8.6-0.4,12.9-1.2c4.9-1,10-5.1,8-10.5c-0.3-0.9-0.8-1.7-1.5-2.4c-2.3-2.5-5.4-3.6-8.5-4.7
	c-6.4-2.2-13-4.4-19.8-4.2c-11.4,0.6-21.4,7.9-25.4,18.6c-0.5,1.3-0.8,2.7-1.1,4c-2.3,12.5,4.9,24.9,16.8,29.6L67.9,161.3z"/>
<polygon class="st7" points="38.9,273.3 39.5,240.4 56.9,205.3 42.9,241.3 "/>
<path class="st0" d="M197.1,356l-73.6-30.6c-3.3-1.3-5.7-4.1-6.7-7.5l0,0c-1-3.4-0.3-7.2,1.8-10c18.6-25.6,30.9-55.2,35.9-86.5
	c0.6-3.5,2.7-6.6,5.8-8.4c3.1-1.7,6.8-1.9,10.1-0.6L244,243c5.2,2.2,8.1,7.9,6.8,13.4c-8.2,33.5-21.5,65.5-39.5,95
	C208.4,356.2,202.3,358.1,197.1,356z"/>
<path class="st1" d="M168.1,217.9c-1.6-0.7-3.3-0.6-4.8,0.3c-1.5,0.8-2.6,2.4-2.8,4.1c-5.2,32.2-17.9,62.7-37,89.1
	c-1,1.4-1.4,3.2-0.9,4.9l0,0c0.5,1.6,1.6,3,3.2,3.6l73.6,30.6c2.5,1,5.4,0.1,6.9-2.2c17.6-28.9,30.7-60.4,38.8-93.3
	c0.6-2.7-0.8-5.4-3.3-6.4L168.1,217.9z"/>
<path class="st6" d="M207.3,286L168.7,270c-3.1-1.3-4.5-4.8-3.2-7.8l0.9-2.2c1.3-3.1,4.8-4.5,7.8-3.2l38.6,16.1
	c3.1,1.3,4.5,4.8,3.2,7.8l-0.9,2.2C213.9,285.9,210.4,287.3,207.3,286z"/>
<path class="st6" d="M195.9,313.4l-38.6-16.1c-3.1-1.3-4.5-4.8-3.2-7.8l0.9-2.2c1.3-3.1,4.8-4.5,7.8-3.2l38.6,16.1
	c3.1,1.3,4.5,4.8,3.2,7.8l-0.9,2.2C202.5,313.2,199,314.7,195.9,313.4z"/>
<path class="st3" d="M222.8,247.6c-0.6,0-1.2-0.1-1.7-0.3l-38.9-15.7c-2.3-0.9-3.4-3.6-2.5-5.9l3-7.4c0.9-2.3,3.6-3.4,5.9-2.5
	l38.9,15.7c2.3,0.9,3.4,3.6,2.5,5.9l-3,7.4C226.3,246.5,224.6,247.6,222.8,247.6z"/>
<path class="st3" d="M141,483.5H1c-0.6,0-1-0.4-1-1s0.4-1,1-1h140c0.6,0,1,0.4,1,1S141.6,483.5,141,483.5z"/>
</svg>
